<svg width="80" height="80" viewBox="0 0 80 80" fill="none" xmlns="http://www.w3.org/2000/svg">
<path d="M77.8172 67.2776L60.9382 50.3986C61.4359 49.3265 62.5051 48.6382 63.6938 48.6382C65.3693 48.6382 66.7321 50.0011 66.7321 51.6764V53.1241C66.7321 53.9869 67.4318 54.6866 68.2946 54.6866C69.1574 54.6866 69.8571 53.9869 69.8571 53.1241V51.6764C69.8571 48.278 67.0922 45.5133 63.694 45.5133C61.6607 45.5133 59.7988 46.5054 58.6599 48.1202L55.2735 44.7338C57.2551 41.363 58.566 37.6153 59.0999 33.7148C60.0574 34.3278 61.1937 34.6848 62.4126 34.6848C65.811 34.6848 68.5757 31.92 68.5757 28.5217V25.4812C68.5757 22.0828 65.8108 19.318 62.4126 19.318C60.7344 19.318 59.2115 19.993 58.099 21.0847C57.2782 18.3638 56.0703 15.7603 54.4956 13.3713C54.0207 12.6507 53.0512 12.4514 52.331 12.9264C51.6106 13.4013 51.4114 14.3703 51.8862 15.091C58.7827 25.5548 57.3456 39.5921 48.469 48.4686C43.4522 53.4857 36.7817 56.2488 29.6871 56.2488C22.5923 56.2488 15.922 53.4857 10.905 48.4686C5.88795 43.4515 3.12499 36.7812 3.12499 29.6865C3.12499 22.5919 5.8881 15.9214 10.9051 10.9044C19.7498 2.05914 33.7546 0.601023 44.2061 7.43678C44.9283 7.90912 45.8967 7.70662 46.369 6.98444C46.8412 6.26225 46.6389 5.29382 45.9165 4.82148C40.2972 1.14618 33.5016 -0.516473 26.7813 0.141025C20.8379 0.722273 15.1918 3.10851 10.6281 6.92694V5.31257C10.6281 2.3832 8.24497 0.000244141 5.31576 0.000244141C2.38655 0.000244141 0.00328124 2.38336 0.00328124 5.31257V10.9374C0.00328124 13.1869 1.40937 15.113 3.38842 15.8863C1.17484 20.092 0 24.7986 0 29.6865C0 37.616 3.08827 45.071 8.69528 50.6783C8.96325 50.9463 9.23668 51.2066 9.51278 51.4629V54.9569C9.51278 56.6324 8.14981 57.9952 6.47451 57.9952C4.7992 57.9952 3.43624 56.6322 3.43624 54.9569V51.9163C3.43624 51.0535 2.73655 50.3538 1.87374 50.3538C1.01093 50.3538 0.311249 51.0535 0.311249 51.9163V54.9567C0.311249 58.3552 3.07608 61.1198 6.47435 61.1198C9.87277 61.1198 12.6375 58.355 12.6375 54.9567V53.9985C17.5959 57.4916 23.4968 59.3734 29.6868 59.3734C35.068 59.3734 40.2302 57.9495 44.7453 55.2827L67.2783 77.8157C68.6858 79.2232 70.5571 79.9984 72.5475 79.9984C74.5381 79.9984 76.4094 79.2232 77.8167 77.8157C80.7225 74.9106 80.7225 70.1831 77.8172 67.2776ZM62.4123 22.4428C64.0876 22.4428 65.4505 23.8058 65.4505 25.4812V28.5217C65.4505 30.197 64.0874 31.56 62.4123 31.56C60.7368 31.56 59.3738 30.197 59.3738 28.5217V25.4812C59.3738 23.8058 60.7369 22.4428 62.4123 22.4428ZM3.12827 10.9375V5.31257C3.12827 4.10632 4.10952 3.12508 5.31576 3.12508C6.52201 3.12508 7.50325 4.10632 7.50325 5.31257V9.49224C7.50325 9.63286 7.52356 9.76833 7.55841 9.89786C6.64451 10.9172 5.8081 11.9894 5.05217 13.1075C3.96998 12.9764 3.12827 12.0543 3.12827 10.9375ZM47.3993 53.5169C48.5493 52.6583 49.6457 51.7113 50.679 50.6782C51.7073 49.6501 52.6529 48.5505 53.5128 47.3924L58.0877 51.9675L51.9689 58.0863L47.3993 53.5169ZM75.6075 75.6062C73.9205 77.2932 71.1755 77.2932 69.4886 75.6062L54.1785 60.2961L60.2974 54.1774L75.6075 69.4875C77.2944 71.1743 77.2944 73.9195 75.6075 75.6062Z" fill="#232ED1"/>
<g clip-path="url(#clip0_84_763)">
<path d="M45.8176 13.5559C41.5092 9.24716 35.7805 6.87451 29.6872 6.87451C23.5943 6.87451 17.8649 9.24763 13.5566 13.5559C10.0168 17.0957 7.78214 21.5809 7.09402 26.5265C6.4284 31.3093 7.31714 36.2728 9.59619 40.5025C10.0057 41.2622 10.9537 41.5461 11.7129 41.137C12.4726 40.7277 12.7567 39.78 12.3474 39.0203C8.25808 31.4308 9.66401 21.8682 15.7668 15.7657C19.4852 12.0471 24.4289 9.9995 29.6877 9.9995C34.9461 9.9995 39.8901 12.0473 43.6084 15.7656C51.2843 23.4415 51.2843 35.9313 43.6084 43.6073C37.5058 49.7103 27.9427 51.1159 20.3535 47.0265C19.594 46.6175 18.6463 46.9012 18.2368 47.6611C17.8273 48.4206 18.1112 49.3683 18.8708 49.7776C22.1846 51.5632 25.9485 52.4954 29.7233 52.4954C30.7669 52.4954 31.8114 52.4242 32.8472 52.28C37.7926 51.5918 42.2779 49.357 45.8179 45.8173C54.712 36.9227 54.712 22.4504 45.8176 13.5559Z" fill="#232ED1"/>
<path d="M15.7671 43.6054C15.1568 42.9954 14.1677 42.9954 13.5574 43.6054L13.5437 43.6192C12.9335 44.2294 12.9335 45.2187 13.5437 45.829C13.8488 46.134 14.2487 46.2867 14.6485 46.2867C15.0484 46.2867 15.4482 46.134 15.7534 45.829L15.7671 45.8153C16.3773 45.2051 16.3773 44.2158 15.7671 43.6054Z" fill="#232ED1"/>
<path d="M50.7877 8.80452L50.6787 8.69468C50.0684 8.08452 49.0793 8.08452 48.4688 8.69468C47.8587 9.30483 47.8587 10.2942 48.4688 10.9045L48.5634 10.9992C48.869 11.309 49.2721 11.4644 49.6756 11.4644C50.072 11.4644 50.4685 11.3145 50.7729 11.0142C51.3873 10.4081 51.3938 9.41889 50.7877 8.80452Z" fill="#232ED1"/>
<path d="M7.30951 76.8734H6.06827V66.1938C6.06827 65.5618 5.68749 64.9921 5.10374 64.7502C4.51984 64.5086 3.84765 64.6421 3.40094 65.0889L0.459385 68.0305C-0.150768 68.6407 -0.150768 69.63 0.459385 70.2403C1.0697 70.8503 2.05875 70.8503 2.66922 70.2403L2.94344 69.9661V76.8734H1.70219C0.839384 76.8734 0.139699 77.5731 0.139699 78.4359C0.139699 79.2987 0.839384 79.9984 1.70219 79.9984H7.30967C8.17248 79.9984 8.87216 79.2987 8.87216 78.4359C8.87216 77.5731 8.17248 76.8734 7.30951 76.8734Z" fill="#232ED1"/>
<path d="M21.1895 76.8734H19.9482V66.1938C19.9482 65.5618 19.5674 64.9921 18.9837 64.7502C18.3999 64.5086 17.7278 64.6421 17.2809 65.0889L14.3393 68.0305C13.7292 68.6407 13.7292 69.63 14.3393 70.2403C14.9496 70.8503 15.9387 70.8503 16.5492 70.2403L16.8234 69.9661V76.8734H15.5821C14.7193 76.8734 14.0196 77.5731 14.0196 78.4359C14.0196 79.2987 14.7193 79.9984 15.5821 79.9984H21.1896C22.0524 79.9984 22.7521 79.2987 22.7521 78.4359C22.7521 77.5731 22.0523 76.8734 21.1895 76.8734Z" fill="#232ED1"/>
<path d="M48.9493 76.8734H47.7081V66.1938C47.7081 65.5618 47.3273 64.9921 46.7436 64.7502C46.1597 64.5086 45.4876 64.6421 45.0408 65.0889L42.0992 68.0305C41.4891 68.6407 41.4891 69.63 42.0992 70.2403C42.7095 70.8503 43.6986 70.8503 44.3091 70.2403L44.5833 69.9661V76.8734H43.342C42.4792 76.8734 41.7795 77.5731 41.7795 78.4359C41.7795 79.2987 42.4792 79.9984 43.342 79.9984H48.9495C49.8123 79.9984 50.512 79.2987 50.512 78.4359C50.512 77.5731 49.8122 76.8734 48.9493 76.8734Z" fill="#232ED1"/>
<path d="M32.1966 64.6316C28.7982 64.6316 26.0335 67.3964 26.0335 70.7947V73.8353C26.0335 77.2337 28.7983 79.9984 32.1966 79.9984C35.595 79.9984 38.3597 77.2336 38.3597 73.8353V70.7948C38.36 67.3964 35.595 64.6316 32.1966 64.6316ZM35.235 73.8355C35.235 75.5109 33.8721 76.8737 32.1968 76.8737C30.5215 76.8737 29.1585 75.5108 29.1585 73.8355V70.7948C29.1585 69.1194 30.5215 67.7566 32.1968 67.7566C33.8721 67.7566 35.235 69.1195 35.235 70.7948V73.8355Z" fill="#232ED1"/>
<path d="M78.4372 57.995H77.196V47.3155C77.196 46.6835 76.8152 46.1138 76.2315 45.872C75.6475 45.6305 74.9755 45.7638 74.5286 46.2107L71.5873 49.1522C70.9771 49.7624 70.9771 50.7518 71.5873 51.3621C72.1976 51.9721 73.1866 51.9721 73.7971 51.3621L74.0713 51.0879V57.995H72.8301C71.9673 57.995 71.2676 58.6947 71.2676 59.5575C71.2676 60.4203 71.9673 61.12 72.8301 61.12H78.4375C79.3004 61.12 80 60.4203 80 59.5575C80 58.6947 79.3 57.995 78.4372 57.995Z" fill="#232ED1"/>
<path d="M73.8364 0.000244141C70.438 0.000244141 67.6733 2.76508 67.6733 6.1635V9.20396C67.6733 12.6024 70.4382 15.3671 73.8364 15.3671C77.2349 15.3671 79.9995 12.6022 79.9995 9.20396V6.16334C79.9997 2.76508 77.2347 0.000244141 73.8364 0.000244141ZM76.8747 9.20396C76.8747 10.8793 75.5117 12.2422 73.8364 12.2422C72.1611 12.2422 70.7982 10.8793 70.7982 9.20396V6.16334C70.7982 4.48788 72.1611 3.12492 73.8364 3.12492C75.5117 3.12492 76.8747 4.48788 76.8747 6.16334V9.20396Z" fill="#232ED1"/>
<path d="M78.4372 31.5599H77.196V20.8802C77.196 20.2483 76.8152 19.6785 76.2314 19.4366C75.6475 19.1947 74.9755 19.3285 74.5286 19.7752L71.5871 22.7168C70.9769 23.3269 70.9769 24.3163 71.5871 24.9266C72.1974 25.5368 73.1864 25.5368 73.7969 24.9266L74.0711 24.6524V31.5597H72.8299C71.9671 31.5597 71.2674 32.2592 71.2674 33.1222C71.2674 33.9852 71.9671 34.6847 72.8299 34.6847H78.4374C79.3002 34.6847 79.9998 33.9852 79.9998 33.1222C79.9998 32.2592 79.3 31.5599 78.4372 31.5599Z" fill="#232ED1"/>
<path d="M42.4982 35.4686H40.6964V22.3416C40.6962 21.7096 40.3154 21.1399 39.7317 20.898C39.1478 20.6561 38.4756 20.79 38.0289 21.2368L34.4994 24.7664C33.8892 25.3766 33.8892 26.366 34.4994 26.9761C35.1097 27.5863 36.0987 27.5863 36.7092 26.9761L37.5714 26.1139V35.4686H35.7697C34.9069 35.4686 34.2072 36.1681 34.2072 37.0311C34.2072 37.894 34.9069 38.5936 35.7697 38.5936H42.4981C43.3609 38.5936 44.0606 37.894 44.0606 37.0311C44.0606 36.1681 43.361 35.4686 42.4982 35.4686Z" fill="#232ED1"/>
<path d="M22.3967 20.7793C18.4911 20.7793 15.3137 23.9568 15.3137 27.8622V31.5107C15.3137 35.4164 18.4912 38.5936 22.3967 38.5936C26.3021 38.5936 29.4796 35.4161 29.4796 31.5107V27.8622C29.4796 23.9566 26.3021 20.7793 22.3967 20.7793ZM26.3546 31.5107C26.3546 33.6932 24.579 35.4688 22.3965 35.4688C20.214 35.4688 18.4384 33.6932 18.4384 31.5107V27.8622C18.4384 25.6797 20.214 23.9041 22.3965 23.9041C24.579 23.9041 26.3546 25.6797 26.3546 27.8622V31.5107Z" fill="#232ED1"/>
</g>
<defs>
<clipPath id="clip0_84_763">
<rect width="80" height="80" fill="white" transform="translate(0 -0.000732422)"/>
</clipPath>
</defs>
</svg>
