<svg width="80" height="80" viewBox="0 0 80 80" fill="none" xmlns="http://www.w3.org/2000/svg">
<g clip-path="url(#clip0_84_818)">
<path d="M68.5893 64.3306C66.3083 64.3306 64.4526 66.1862 64.4526 68.4673C64.4526 70.7482 66.3082 72.6038 68.5893 72.6038C70.8702 72.6038 72.7258 70.7482 72.7258 68.4673C72.7258 66.1863 70.8702 64.3306 68.5893 64.3306ZM68.5891 70.1523C67.66 70.1523 66.9041 69.3963 66.9041 68.4673C66.9041 67.5382 67.66 66.7823 68.5891 66.7823C69.5182 66.7823 70.2741 67.5382 70.2741 68.4673C70.2741 69.3963 69.5182 70.1523 68.5891 70.1523Z" fill="#232ED1"/>
<path d="M79.7345 68.2528C79.6564 65.2243 78.3745 62.4386 76.1249 60.4094L51.445 38.1494L73.2664 16.3279C73.4099 16.2851 73.5516 16.2318 73.6883 16.1596L78.4138 13.6656C79.0666 13.3209 79.5044 12.7043 79.6145 11.9745C79.7248 11.2445 79.4888 10.5263 78.9667 10.0039L73.6461 4.6834C73.1239 4.16137 72.4063 3.92528 71.6757 4.03559C70.9458 4.14575 70.3294 4.58356 69.9846 5.23653L67.4904 9.96166C67.4176 10.0996 67.3616 10.2423 67.3186 10.3871L57.0187 20.6871C56.5399 21.166 56.5399 21.9419 57.0187 22.4208C57.4976 22.8993 58.2735 22.8993 58.7524 22.4208L68.2043 12.9688L70.6813 15.4459L46.5095 39.6176L44.0325 37.1406L54.5832 26.59C55.062 26.1111 55.062 25.3352 54.5832 24.8563C54.1043 24.3779 53.3284 24.3779 52.8495 24.8563L45.1942 32.5116L36.8627 24.9969C39.2248 18.1976 37.5142 10.6328 32.39 5.50871C27.1415 0.260139 19.2677 -1.41251 12.3306 1.24795C11.9429 1.3967 11.6568 1.73138 11.5706 2.13748C11.4843 2.54357 11.6092 2.96575 11.9028 3.25935L21.5265 12.8832C21.8112 13.1679 21.9682 13.5465 21.9682 13.9491C21.9682 14.3518 21.8113 14.7304 21.5265 15.0152L15.2767 21.2651C14.992 21.5499 14.6134 21.7068 14.2107 21.7068C13.8081 21.7068 13.4295 21.5501 13.1446 21.2651L3.52077 11.6412C3.22702 11.3476 2.80515 11.2228 2.3989 11.309C1.99281 11.3954 1.65812 11.6813 1.50937 12.069C-1.15109 19.0058 0.521563 26.8796 5.77029 32.1285C10.7689 37.1269 18.1871 38.8867 24.8794 36.7244L31.3211 43.7686C31.0116 44.3734 30.6091 44.9375 30.1127 45.4339C28.2558 47.2907 25.4729 47.8757 23.0221 46.9245C22.5691 46.7482 22.0552 46.8567 21.7115 47.2003L6.70232 62.2094C2.63921 66.2727 2.63921 72.8839 6.70232 76.9469C8.67091 78.9158 11.2879 79.9997 14.0715 79.9997C16.8549 79.9997 19.4721 78.9158 21.4404 76.9475L36.4495 61.9385C36.793 61.5949 36.9013 61.0808 36.7253 60.6279C35.7739 58.1773 36.3589 55.394 38.2156 53.5371C40.0728 51.6803 42.8559 51.0953 45.3065 52.0465C45.7598 52.2228 46.2734 52.114 46.6172 51.7707L49.4484 48.9395C50.3009 48.087 50.7703 46.9534 50.7703 45.7479C50.7703 44.5425 50.3009 43.4089 49.4484 42.5564L48.2433 41.3512L49.7093 39.8851L74.483 62.2299C76.2286 63.8044 77.2234 65.966 77.2839 68.316C77.3444 70.666 76.4622 72.8758 74.7999 74.538C73.1455 76.1927 70.9413 77.0733 68.6068 77.0228C66.2676 76.9706 64.1098 75.9909 62.5309 74.2642L44.1108 54.1213C43.6534 53.6215 42.8784 53.5871 42.3789 54.044C41.8794 54.501 41.8447 55.2763 42.3016 55.7759L60.7215 75.9187C62.7565 78.1439 65.5374 79.4064 68.5519 79.4737C68.6363 79.4756 68.7205 79.4766 68.8047 79.4766C71.7247 79.4766 74.4608 78.3439 76.5335 76.2716C78.6756 74.1292 79.8123 71.2814 79.7345 68.2528ZM69.7105 11.0078L72.0572 6.56183L77.0883 11.5929L72.6424 13.9396L69.7105 11.0078ZM26.1443 34.4747C25.8068 34.1059 25.2796 33.9788 24.8112 34.1534C18.817 36.3894 12.0229 34.9141 7.50372 30.3953C3.4003 26.2918 1.81031 20.3427 3.2114 14.7993L11.4109 22.9988C12.1589 23.7466 13.1531 24.1583 14.2106 24.1583C15.2681 24.1583 16.2623 23.7466 17.0101 22.9988L23.2599 16.749C24.0077 16.001 24.4194 15.0068 24.4194 13.9493C24.4194 12.8918 24.0077 11.8976 23.2599 11.1498L15.0606 2.94997C20.6035 1.54826 26.5532 3.13872 30.6564 7.2423C35.2906 11.8762 36.7147 18.8052 34.2849 24.895C34.0947 25.3714 34.2213 25.916 34.6024 26.2596L43.4584 34.2473L42.2987 35.407L41.0936 34.2019C40.2411 33.3494 39.1075 32.88 37.902 32.88C36.6966 32.88 35.563 33.3494 34.7105 34.2019L31.8793 37.0331C31.5358 37.3767 31.4275 37.8908 31.6035 38.3437C31.9296 39.1836 32.071 40.062 32.0468 40.9294L26.1443 34.4747ZM47.7145 47.2059L45.4204 49.5001C42.2655 48.5906 38.8323 49.4534 36.4822 51.8034H36.482C34.1321 54.1535 33.2691 57.5862 34.1789 60.7418L19.7068 75.2136C18.2015 76.7189 16.2003 77.548 14.0717 77.548C11.9431 77.548 9.94153 76.7189 8.43653 75.2136C5.3292 72.1064 5.3292 67.0505 8.43653 63.9432L22.9085 49.4712C26.0638 50.3812 29.4965 49.5178 31.8468 47.1678C34.1967 44.8176 35.0599 41.385 34.15 38.2295L36.4442 35.9355C37.248 35.1314 38.5563 35.1314 39.36 35.9355L41.432 38.0075L45.6425 42.2179L47.7145 44.29C48.5186 45.094 48.5186 46.4021 47.7145 47.2059Z" fill="#232ED1"/>
<path d="M25.3633 54.1011C24.8844 53.6225 24.1085 53.6225 23.6296 54.1011L12.0174 65.7133C11.5387 66.1922 11.5387 66.9681 12.0174 67.447C12.2568 67.6862 12.5707 67.8059 12.8843 67.8059C13.1979 67.8059 13.5118 67.6862 13.7512 67.447L25.3633 55.8349C25.8419 55.356 25.8419 54.5799 25.3633 54.1011Z" fill="#232ED1"/>
<path d="M29.6538 58.3917C29.175 57.9131 28.3989 57.9131 27.92 58.3917L16.3079 70.0036C15.8292 70.4825 15.8292 71.2585 16.3079 71.7374C16.5473 71.9766 16.861 72.0963 17.1748 72.0963C17.4884 72.0963 17.8023 71.9766 18.0416 71.7374L29.6538 60.1254C30.1325 59.6465 30.1325 58.8706 29.6538 58.3917Z" fill="#232ED1"/>
</g>
<defs>
<clipPath id="clip0_84_818">
<rect width="80" height="80" fill="white"/>
</clipPath>
</defs>
</svg>
