<svg width="80" height="80" viewBox="0 0 80 80" fill="none" xmlns="http://www.w3.org/2000/svg">
<g clip-path="url(#clip0_84_810)">
<path d="M75.95 44.052C78.1827 44.052 79.9997 42.2331 79.9997 39.998C79.9997 37.7647 78.1827 35.9477 75.95 35.9477H72.385V30.9087H75.95C78.1827 30.9087 79.9997 29.0917 79.9997 26.859C79.9997 24.6258 78.1827 22.8087 75.95 22.8087H72.385V13.6621C72.385 10.3277 69.672 7.61472 66.3376 7.61472H57.1909V4.05028C57.1909 1.81701 55.3739 0 53.1413 0C50.9056 0 49.0867 1.81701 49.0867 4.05028V7.61533H44.052V4.05028C44.052 1.81701 42.2331 0 39.9974 0C37.7647 0 35.9477 1.81701 35.9477 4.05028V7.61533H30.9081V4.05028C30.9081 1.81701 29.0917 0 26.8584 0C24.6258 0 22.8087 1.81701 22.8087 4.05028V7.61533H13.6614C10.3277 7.61533 7.61472 10.3277 7.61472 13.6621V22.8094H4.04967C1.81701 22.8087 0 24.6258 0 26.859C0 29.0923 1.81701 30.9087 4.04967 30.9087H7.61472V35.9483H4.04967C1.81701 35.9483 0 37.7647 0 39.998C0 42.2331 1.81701 44.052 4.04967 44.052H7.61472V49.0873H4.04967C1.81701 49.0873 0 50.9056 0 53.1413C0 55.3745 1.81701 57.1909 4.04967 57.1909H7.61472V66.3382C7.61472 69.6726 10.3277 72.385 13.6621 72.385H22.8087V75.95C22.8087 78.1833 24.6258 80.0003 26.859 80.0003C29.0917 80.0003 30.9087 78.1833 30.9087 75.95V72.385H35.9477V75.95C35.9477 78.1833 37.7647 80.0003 39.998 80.0003C42.2337 80.0003 44.052 78.1833 44.052 75.95V72.385H49.0873V75.95C49.0873 78.1833 50.9062 80.0003 53.1413 80.0003C55.3745 80.0003 57.1909 78.1833 57.1909 75.95V72.385H66.3382C69.6726 72.385 72.3856 69.6726 72.3856 66.3382V57.1909H75.9506C78.1833 57.1909 80.0003 55.3745 80.0003 53.1413C80.0003 50.9056 78.1833 49.0873 75.9506 49.0873H72.3856V44.052H75.95ZM75.95 38.3006C76.8857 38.3006 77.6468 39.0623 77.6468 39.998C77.6468 40.9361 76.8857 41.6991 75.95 41.6991H72.385V38.3006H75.95ZM75.95 25.1623C76.8857 25.1623 77.6468 25.9234 77.6468 26.859C77.6468 27.7947 76.8857 28.5558 75.95 28.5558H72.385V25.1623H75.95ZM51.4396 4.05028C51.4396 3.114 52.2032 2.3529 53.1413 2.3529C54.0769 2.3529 54.838 3.114 54.838 4.05028V7.61533H51.4396V4.05028ZM38.3006 4.05028C38.3006 3.114 39.0617 2.3529 39.9974 2.3529C40.9355 2.3529 41.6991 3.114 41.6991 4.05028V7.61533H38.3006V4.05028ZM25.1616 4.05028C25.1616 3.114 25.9228 2.3529 26.8584 2.3529C27.7947 2.3529 28.5558 3.114 28.5558 4.05028V7.61533H25.1616V4.05028ZM4.04967 28.5558C3.114 28.5558 2.3529 27.7947 2.3529 26.859C2.3529 25.9234 3.114 25.1623 4.04967 25.1623H7.61472V28.5558H4.04967ZM4.04967 41.6991C3.114 41.6991 2.3529 40.9361 2.3529 39.998C2.3529 39.0623 3.114 38.3012 4.04967 38.3012H7.61472V41.6991H4.04967ZM4.04967 54.838C3.114 54.838 2.3529 54.0769 2.3529 53.1413C2.3529 52.2032 3.114 51.4402 4.04967 51.4402H7.61472V54.838H4.04967ZM28.5558 75.95C28.5558 76.8857 27.7941 77.6468 26.8584 77.6468C25.9228 77.6468 25.1616 76.8857 25.1616 75.95V72.385H28.5558V75.95ZM41.6991 75.95C41.6991 76.8857 40.9355 77.6468 39.9974 77.6468C39.0617 77.6468 38.3006 76.8857 38.3006 75.95V72.385H41.6991V75.95ZM54.838 75.95C54.838 76.8857 54.0769 77.6468 53.1413 77.6468C52.2032 77.6468 51.4396 76.8857 51.4396 75.95V72.385H54.838V75.95ZM70.0321 66.3382C70.0321 68.375 68.375 70.0321 66.3382 70.0321H13.6614C11.6247 70.0321 9.96761 68.375 9.96761 66.3382V13.6621C9.96761 11.6253 11.6247 9.96761 13.6614 9.96761H66.3376C68.375 9.96761 70.0321 11.6253 70.0321 13.6621V66.3382ZM75.95 51.4402C76.8857 51.4402 77.6468 52.2032 77.6468 53.1413C77.6468 54.0769 76.8857 54.838 75.95 54.838H72.385V51.4402H75.95Z" fill="#232ED1"/>
<path d="M50.2098 26.7236H41.6832C41.0332 26.7236 40.5071 27.2504 40.5071 27.8998C40.5071 28.5492 41.0338 29.0759 41.6832 29.0759H50.2098C50.5943 29.0759 50.9196 29.4031 50.9196 29.79V50.2105C50.9196 50.595 50.5943 50.9197 50.2098 50.9197H29.7899C29.403 50.9197 29.0758 50.5944 29.0758 50.2105V29.79C29.0758 29.3964 29.3963 29.0759 29.7899 29.0759H37.0177C37.6671 29.0759 38.1938 28.5492 38.1938 27.8998C38.1938 27.2504 37.6671 26.7236 37.0177 26.7236H29.7899C28.0987 26.7236 26.7229 28.0994 26.7229 29.79V50.2105C26.7229 51.8993 28.0987 53.2726 29.7899 53.2726H50.2098C51.8986 53.2726 53.2725 51.8993 53.2725 50.2105V29.79C53.2725 28.0987 51.8986 26.7236 50.2098 26.7236Z" fill="#232ED1"/>
<path d="M64.91 27.1014C65.56 27.1014 66.0868 26.5747 66.0868 25.9246C66.0868 25.2752 65.56 24.7485 64.91 24.7485H61.1582V23.136C61.1582 20.7684 59.2301 18.8415 56.8595 18.8415H55.247V15.0897C55.247 14.4397 54.7202 13.9136 54.0708 13.9136C53.4208 13.9136 52.8941 14.4403 52.8941 15.0897V18.8415H48.3622V15.0897C48.3622 14.4397 47.8355 13.9136 47.1855 13.9136C46.5361 13.9136 46.0093 14.4403 46.0093 15.0897V18.8415H41.1741V15.0897C41.1741 14.4397 40.6474 13.9136 39.998 13.9136C39.348 13.9136 38.8213 14.4403 38.8213 15.0897V18.8415H33.9867V15.0897C33.9867 14.4397 33.4599 13.9136 32.8099 13.9136C32.1605 13.9136 31.6338 14.4403 31.6338 15.0897V18.8415H27.1013V15.0897C27.1013 14.4397 26.5746 13.9136 25.9252 13.9136C25.2752 13.9136 24.7484 14.4403 24.7484 15.0897V18.8415H23.1365C20.7683 18.8415 18.8421 20.7684 18.8421 23.136V24.7485H15.0897C14.4396 24.7485 13.9129 25.2752 13.9129 25.9246C13.9129 26.5747 14.4396 27.1014 15.0897 27.1014H18.8415V31.6338H15.0897C14.4396 31.6338 13.9129 32.1606 13.9129 32.81C13.9129 33.46 14.4396 33.9861 15.0897 33.9861H18.8415V38.8213H15.0897C14.4396 38.8213 13.9129 39.348 13.9129 39.9975C13.9129 40.6475 14.4396 41.1742 15.0897 41.1742H18.8415V46.0088H15.0897C14.4396 46.0088 13.9129 46.5355 13.9129 47.1855C13.9129 47.8349 14.4396 48.3617 15.0897 48.3617H18.8415V52.8941H15.0897C14.4396 52.8941 13.9129 53.4209 13.9129 54.0703C13.9129 54.7203 14.4396 55.247 15.0897 55.247H18.8415V56.8596C18.8415 59.2296 20.7677 61.1583 23.1359 61.1583H24.7484V64.9101C24.7484 65.5601 25.2752 66.0862 25.9246 66.0862C26.574 66.0862 27.1007 65.5595 27.1007 64.9101V61.1583H31.6332V64.9101C31.6332 65.5601 32.1599 66.0862 32.8099 66.0862C33.4593 66.0862 33.9861 65.5595 33.9861 64.9101V61.1583H38.8206V64.9101C38.8206 65.5601 39.3474 66.0862 39.9974 66.0862C40.6468 66.0862 41.1735 65.5595 41.1735 64.9101V61.1583H46.0087V64.9101C46.0087 65.5601 46.5355 66.0862 47.1849 66.0862C47.8349 66.0862 48.3616 65.5595 48.3616 64.9101V61.1583H52.8941V64.9101C52.8941 65.5601 53.4208 66.0862 54.0702 66.0862C54.7202 66.0862 55.2464 65.5595 55.2464 64.9101V61.1583H56.8589C59.2295 61.1583 61.1576 59.2296 61.1576 56.8596V55.247H64.91C65.5594 55.247 66.0862 54.7203 66.0862 54.0703C66.0862 53.4209 65.5594 52.8941 64.91 52.8941H61.1576V48.3617H64.91C65.5594 48.3617 66.0862 47.8349 66.0862 47.1855C66.0862 46.5355 65.5594 46.0088 64.91 46.0088H61.1576V41.1742H64.91C65.5594 41.1742 66.0862 40.6475 66.0862 39.9975C66.0862 39.348 65.5594 38.8213 64.91 38.8213H61.1576V33.9861H64.91C65.5594 33.9861 66.0862 33.4594 66.0862 32.81C66.0862 32.16 65.5594 31.6338 64.91 31.6338H61.1576V27.1014H64.91ZM56.8595 58.806H54.1581C54.1294 58.8035 54.1001 58.8017 54.0708 58.8017C54.0409 58.8017 54.0122 58.8035 53.9829 58.806H47.2728C47.2435 58.8035 47.2148 58.8017 47.1849 58.8017C47.1556 58.8017 47.1263 58.8035 47.0976 58.806H40.0847C40.056 58.8035 40.0267 58.8017 39.9974 58.8017C39.9675 58.8017 39.9388 58.8035 39.9095 58.806H32.8972C32.8679 58.8035 32.8392 58.8017 32.8093 58.8017C32.78 58.8017 32.7507 58.8035 32.722 58.806H26.0119C25.9826 58.8035 25.9539 58.8017 25.924 58.8017C25.8947 58.8017 25.8654 58.8035 25.8361 58.806H23.1353C22.0647 58.806 21.1938 57.9332 21.1938 56.8596V23.136C21.1938 22.0654 22.0647 21.1944 23.1353 21.1944H56.8589C57.9319 21.1944 58.8047 22.0654 58.8047 23.136V25.8374C58.8029 25.866 58.8004 25.8953 58.8004 25.9246C58.8004 25.9545 58.8029 25.9832 58.8047 26.0125V32.7227C58.8029 32.752 58.8004 32.7807 58.8004 32.8106C58.8004 32.8399 58.8029 32.8692 58.8047 32.8979V39.9102C58.8029 39.9395 58.8004 39.9682 58.8004 39.9981C58.8004 40.028 58.8029 40.0567 58.8047 40.086V47.0983C58.8029 47.1276 58.8004 47.1562 58.8004 47.1861C58.8004 47.2154 58.8029 47.2447 58.8047 47.2734V53.9836C58.8029 54.0129 58.8004 54.0416 58.8004 54.0715C58.8004 54.1014 58.8029 54.1301 58.8047 54.1594V56.8602C58.8053 57.9332 57.9325 58.806 56.8595 58.806Z" fill="#232ED1"/>
</g>
<defs>
<clipPath id="clip0_84_810">
<rect width="80" height="80" fill="white"/>
</clipPath>
</defs>
</svg>
