<svg width="79" height="79" viewBox="0 0 79 79" fill="none" xmlns="http://www.w3.org/2000/svg">
<path d="M39.453 78.9059C28.9147 78.9059 19.0071 74.802 11.5556 67.3504C4.10405 59.8987 0 49.9912 0 39.453C0 28.9147 4.10389 19.0071 11.5556 11.5556C19.0073 4.10405 28.9147 0 39.453 0C46.4797 0 53.379 1.87062 59.4049 5.40982C65.253 8.8445 70.1491 13.7571 73.5638 19.6165C73.8895 20.1757 73.7005 20.8932 73.1413 21.219C72.5824 21.5446 71.8647 21.3559 71.5388 20.7965C68.3263 15.2838 63.7201 10.662 58.218 7.4306C52.5517 4.1028 46.0628 2.34374 39.453 2.34374C29.5408 2.34374 20.2218 6.20372 13.2128 13.2128C6.20372 20.2218 2.34374 29.5408 2.34374 39.453C2.34374 49.3651 6.20372 58.6841 13.2128 65.6932C20.2218 72.7022 29.5408 76.5622 39.453 76.5622C49.3651 76.5622 58.6841 72.7022 65.6932 65.6932C72.7022 58.6841 76.5622 49.3651 76.5622 39.453C76.5622 34.4647 75.5895 29.6246 73.6711 25.0672C73.42 24.4708 73.7 23.7837 74.2966 23.5326C74.8928 23.2813 75.5803 23.5616 75.8313 24.158C77.8714 29.0047 78.9059 34.1506 78.9059 39.453C78.9059 49.9912 74.802 59.8988 67.3504 67.3504C59.8987 74.8019 49.9912 78.9059 39.453 78.9059Z" fill="#232ED1"/>
<path d="M39.453 70.3713C22.4046 70.3713 8.53467 56.5014 8.53467 39.453C8.53467 22.4046 22.4046 8.53467 39.453 8.53467C56.5015 8.53467 70.3714 22.4046 70.3714 39.453C70.3714 56.5014 56.5015 70.3713 39.453 70.3713ZM39.453 10.8784C23.6969 10.8784 10.8784 23.697 10.8784 39.453C10.8784 55.209 23.6969 68.0276 39.453 68.0276C55.2092 68.0276 68.0277 55.209 68.0277 39.453C68.0277 23.697 55.2092 10.8784 39.453 10.8784Z" fill="#232ED1"/>
<path d="M29.3155 63.2032C26.9462 63.2032 25.0187 61.2757 25.0187 58.9064V56.8848H24.0621C21.6928 56.8848 19.7653 54.9573 19.7653 52.5879C19.7653 50.2186 21.6928 48.2911 24.0621 48.2911H25.0187V47.0406H24.0621C21.6928 47.0406 19.7653 45.1131 19.7653 42.7438C19.7653 40.3744 21.6928 38.4469 24.0621 38.4469H25.0187V34.7408C25.0187 34.0936 25.5434 33.569 26.1905 33.569C26.8377 33.569 27.3624 34.0936 27.3624 34.7408V39.6188C27.3624 40.266 26.8377 40.7906 26.1905 40.7906H24.0621C22.9851 40.7906 22.109 41.6667 22.109 42.7438C22.109 43.8208 22.9851 44.6969 24.0621 44.6969H26.1905C26.8377 44.6969 27.3624 45.2216 27.3624 45.8688V49.463C27.3624 50.1101 26.8377 50.6348 26.1905 50.6348H24.0621C22.9851 50.6348 22.109 51.5109 22.109 52.5879C22.109 53.665 22.9851 54.5411 24.0621 54.5411H26.1905C26.8377 54.5411 27.3624 55.0657 27.3624 55.7129V58.9064C27.3624 59.9834 28.2385 60.8595 29.3155 60.8595C30.3926 60.8595 31.2687 59.9834 31.2687 58.9064V55.7129C31.2687 55.0657 31.7933 54.5411 32.4405 54.5411H43.3709C44.448 54.5411 45.3241 53.665 45.3241 52.5879C45.3241 51.5109 44.448 50.6348 43.3709 50.6348H32.4405C31.7933 50.6348 31.2687 50.1101 31.2687 49.463V45.8688C31.2687 45.2216 31.7933 44.6969 32.4405 44.6969H44.8923C52.0322 44.6969 57.8409 38.8882 57.8409 31.7483C57.8409 24.6085 52.0322 18.7998 44.8923 18.7998H29.3155C28.2385 18.7998 27.3624 19.6759 27.3624 20.7529V30.053C27.3624 30.7002 26.8377 31.2249 26.1905 31.2249C25.5434 31.2249 25.0187 30.7002 25.0187 30.053V20.7529C25.0187 18.3835 26.9462 16.4561 29.3155 16.4561H44.8923C53.3245 16.4561 60.1846 23.3162 60.1846 31.7483C60.1846 40.1805 53.3245 47.0406 44.8923 47.0406H33.6124V48.2911H43.3709C45.7403 48.2911 47.6678 50.2186 47.6678 52.5879C47.6678 54.9573 45.7403 56.8848 43.3709 56.8848H33.6124V58.9064C33.6124 61.2757 31.6849 63.2032 29.3155 63.2032ZM44.8923 40.7906H32.4405C31.7933 40.7906 31.2687 40.266 31.2687 39.6188V23.8779C31.2687 23.2307 31.7933 22.706 32.4405 22.706H44.8923C49.8783 22.706 53.9347 26.7624 53.9347 31.7483C53.9347 36.7343 49.8783 40.7906 44.8923 40.7906ZM33.6124 38.4469H44.8923C48.5859 38.4469 51.5909 35.4421 51.5909 31.7483C51.5909 28.0546 48.5859 25.0498 44.8923 25.0498H33.6124V38.4469Z" fill="#232ED1"/>
</svg>
